<svg width="102" height="32" viewBox="0 0 102 32" fill="none" xmlns="http://www.w3.org/2000/svg">
<rect x="0.957642" width="101.042" height="31.9081" rx="4.5583" fill="#3E8600"/>
<path d="M53.011 16.8362C51.5513 16.8362 50.3616 17.9465 50.3616 19.4758C50.3616 20.9957 51.5513 22.1153 53.011 22.1153C54.4714 22.1153 55.6612 20.9957 55.6612 19.4758C55.6605 17.9465 54.4708 16.8362 53.011 16.8362ZM53.011 21.0764C52.2111 21.0764 51.5215 20.4167 51.5215 19.4764C51.5215 18.5262 52.2117 17.8764 53.011 17.8764C53.811 17.8764 54.5006 18.5262 54.5006 19.4764C54.5006 20.416 53.811 21.0764 53.011 21.0764ZM47.2305 16.8362C45.7707 16.8362 44.581 17.9465 44.581 19.4758C44.581 20.9957 45.7707 22.1153 47.2305 22.1153C48.6908 22.1153 49.8806 20.9957 49.8806 19.4758C49.8806 17.9465 48.6908 16.8362 47.2305 16.8362ZM47.2305 21.0764C46.4305 21.0764 45.7409 20.4167 45.7409 19.4764C45.7409 18.5262 46.4311 17.8764 47.2305 17.8764C48.0304 17.8764 48.72 18.5262 48.72 19.4764C48.7206 20.416 48.0304 21.0764 47.2305 21.0764ZM40.3551 17.6468V18.7664H43.035C42.9549 19.3963 42.7451 19.8562 42.4249 20.1759C42.0351 20.5656 41.425 20.9957 40.3551 20.9957C38.7054 20.9957 37.4157 19.6657 37.4157 18.016C37.4157 16.3664 38.7054 15.0364 40.3551 15.0364C41.245 15.0364 41.8949 15.3864 42.3746 15.8364L43.1647 15.0463C42.4944 14.4064 41.605 13.9167 40.3551 13.9167C38.0953 13.9167 36.1956 15.7563 36.1956 18.016C36.1956 20.2758 38.0953 22.1153 40.3551 22.1153C41.5746 22.1153 42.495 21.715 43.2143 20.9653C43.9541 20.2255 44.1844 19.1853 44.1844 18.3456C44.1844 18.0862 44.1645 17.846 44.1242 17.6461H40.3551V17.6468ZM68.4748 18.5163C68.2551 17.9267 67.5848 16.8362 66.2151 16.8362C64.8553 16.8362 63.7251 17.9062 63.7251 19.4758C63.7251 20.9554 64.8453 22.1153 66.3448 22.1153C67.5544 22.1153 68.2545 21.3755 68.5449 20.9454L67.645 20.3453C67.3452 20.7853 66.935 21.0752 66.3448 21.0752C65.7552 21.0752 65.335 20.8052 65.065 20.2752L68.5946 18.8154L68.4748 18.5163ZM64.8751 19.3963C64.8453 18.376 65.6652 17.8565 66.2554 17.8565C66.7153 17.8565 67.1051 18.0868 67.2354 18.4164L64.8751 19.3963ZM62.0059 21.9558H63.1653V14.1973H62.0059V21.9558ZM60.1055 17.4264H60.0658C59.8058 17.1161 59.3055 16.8362 58.6762 16.8362C57.3561 16.8362 56.1465 17.9962 56.1465 19.4863C56.1465 20.9659 57.3561 22.116 58.6762 22.116C59.3062 22.116 59.8058 21.8361 60.0658 21.5164H60.1055V21.8963C60.1055 22.906 59.5656 23.446 58.6961 23.446C57.9861 23.446 57.546 22.9364 57.366 22.5063L56.3563 22.9265C56.6461 23.626 57.4157 24.4862 58.6961 24.4862C60.0559 24.4862 61.2059 23.6862 61.2059 21.7361V16.997H60.1062V17.4264H60.1055ZM58.7761 21.0764C57.9761 21.0764 57.3065 20.4061 57.3065 19.4863C57.3065 18.556 57.9761 17.8764 58.7761 17.8764C59.5656 17.8764 60.1856 18.556 60.1856 19.4863C60.1856 20.4061 59.5656 21.0764 58.7761 21.0764ZM73.9078 14.1973H71.133V21.9558H72.2905V19.0165H73.9072C75.1907 19.0165 76.4531 18.0874 76.4531 16.6072C76.4531 15.127 75.1913 14.1973 73.9078 14.1973ZM73.9376 17.9366H72.2905V15.2772H73.9376C74.8034 15.2772 75.295 15.994 75.295 16.6072C75.295 17.208 74.8034 17.9366 73.9376 17.9366ZM81.0948 16.8226C80.2563 16.8226 79.388 17.1918 79.0287 18.0105L80.0565 18.4393C80.2762 18.0105 80.6858 17.8702 81.1147 17.8702C81.7136 17.8702 82.3224 18.2295 82.3323 18.8682V18.9482C82.1226 18.8285 81.6732 18.6491 81.1246 18.6491C80.0168 18.6491 78.8884 19.2579 78.8884 20.3956C78.8884 21.4339 79.797 22.1023 80.8149 22.1023C81.5932 22.1023 82.0226 21.7529 82.292 21.3433H82.3317V21.9422H83.4501V18.9675C83.4507 17.5909 82.4217 16.8226 81.0948 16.8226ZM80.9545 21.0745C80.5759 21.0745 80.0465 20.8846 80.0465 20.4154C80.0465 19.8165 80.7057 19.5869 81.2748 19.5869C81.7831 19.5869 82.0233 19.6967 82.3323 19.8463C82.2423 20.5656 81.6236 21.0745 80.9545 21.0745ZM87.5227 16.992L86.1952 20.3558H86.1554L84.7776 16.992H83.5302L85.5963 21.6933L84.4183 24.3087H85.626L88.8105 16.992H87.5227ZM77.0923 21.9558H78.2498V14.1973H77.0923V21.9558Z" fill="white"/>
<path d="M40.1515 9.69364C40.1515 10.2137 39.9976 10.6277 39.6891 10.9368C39.3391 11.3042 38.8823 11.4879 38.3212 11.4879C37.7838 11.4879 37.3264 11.3017 36.9509 10.9293C36.5748 10.5563 36.3867 10.0946 36.3867 9.54345C36.3867 8.99171 36.5748 8.52995 36.9509 8.15757C37.3264 7.78457 37.7838 7.59838 38.3212 7.59838C38.5881 7.59838 38.8432 7.65051 39.0852 7.75416C39.3279 7.85843 39.5222 7.99683 39.6674 8.16999L39.3403 8.49768C39.0939 8.20288 38.7544 8.05579 38.3206 8.05579C37.9284 8.05579 37.5895 8.19357 37.3034 8.46913C37.0173 8.74469 36.8745 9.1028 36.8745 9.54283C36.8745 9.98286 37.0173 10.341 37.3034 10.6165C37.5895 10.8921 37.9284 11.0299 38.3206 11.0299C38.7364 11.0299 39.0834 10.8915 39.3608 10.614C39.5408 10.4334 39.6451 10.1821 39.673 9.85997H38.3206V9.4125H40.1248C40.1434 9.50994 40.1515 9.60365 40.1515 9.69364Z" fill="white"/>
<path d="M43.0127 8.13837H41.3171V9.31882H42.8463V9.76629H41.3171V10.9467H43.0127V11.4048H40.8386V7.68096H43.0127V8.13837Z" fill="white"/>
<path d="M45.0303 11.4048H44.5518V8.13837H43.5116V7.68096H46.0705V8.13837H45.0303V11.4048Z" fill="white"/>
<path d="M47.9218 11.4048V7.68096H48.4003V11.4048H47.9218Z" fill="white"/>
<path d="M50.5224 11.4048H50.0439V8.13837H49.0037V7.68096H51.5626V8.13837H50.5224V11.4048Z" fill="white"/>
<path d="M56.4065 10.9238C56.0403 11.2999 55.5854 11.4879 55.0411 11.4879C54.4968 11.4879 54.0419 11.2999 53.6763 10.9238C53.3101 10.5477 53.1277 10.0872 53.1277 9.54286C53.1277 8.99856 53.3101 8.53805 53.6763 8.16195C54.0419 7.78584 54.4968 7.59717 55.0411 7.59717C55.5823 7.59717 56.0366 7.78646 56.404 8.16443C56.7714 8.5424 56.9551 9.00167 56.9551 9.54286C56.9551 10.0872 56.772 10.5477 56.4065 10.9238ZM54.0294 10.6116C54.305 10.8909 54.642 11.0299 55.0411 11.0299C55.4401 11.0299 55.7778 10.8903 56.0527 10.6116C56.3283 10.3323 56.4667 9.97606 56.4667 9.54286C56.4667 9.10966 56.3283 8.75341 56.0527 8.47413C55.7778 8.19484 55.4401 8.05582 55.0411 8.05582C54.642 8.05582 54.305 8.19546 54.0294 8.47413C53.7545 8.75341 53.6161 9.10966 53.6161 9.54286C53.6161 9.97606 53.7545 10.3323 54.0294 10.6116Z" fill="white"/>
<path d="M57.6267 11.4048V7.68096H58.2088L60.0186 10.5775H60.0391L60.0186 9.86001V7.68096H60.4971V11.4048H59.9975L58.1039 8.36738H58.0834L58.1039 9.08484V11.4048H57.6267Z" fill="white"/>
<path fillRule="evenodd" clipRule="evenodd" d="M16.9981 8.34908C16.9422 8.50159 16.9117 8.68181 16.9117 8.88698V22.6129C16.9117 22.8183 16.9422 22.9985 16.998 23.1508L24.3984 15.7494L16.9981 8.34908ZM17.5303 23.6929C17.7962 23.7765 18.1289 23.7275 18.4888 23.5234L27.2142 18.5652L24.9356 16.2866L17.5303 23.6929ZM27.8997 18.1763L30.5918 16.6468C31.4588 16.1534 31.4588 15.3472 30.5918 14.8544L27.898 13.3237L25.4727 15.7493L27.8997 18.1763ZM27.2129 12.9344L18.4888 7.97714C18.1291 7.77272 17.7966 7.72387 17.5307 7.80735L24.9355 15.2121L27.2129 12.9344Z" fill="white"/>
</svg>
