<svg width="110" height="29" viewBox="0 0 110 29" fill="none" xmlns="http://www.w3.org/2000/svg">
<path d="M0 8.1913L11.4748 1.58276V15.5208L0 21.5285V8.1913Z" fill="#91A9FF"/>
<path d="M22.8896 8.1913L11.4148 1.58276V15.5208L22.8896 21.5285V8.1913Z" fill="#5E81FF"/>
<path d="M11.4145 15.5208L22.8894 21.5285L11.4145 27.5363L-0.000202901 21.5285L11.4145 15.5208Z" fill="#3E8600"/>
<path d="M28.4436 23V19.8359H29.4606C30.1386 19.8359 30.681 19.6476 31.0878 19.2709C31.5097 18.8792 31.7206 18.3669 31.7206 17.7341V6.16267H35.2237V17.5759C35.2237 18.6607 34.9902 19.6099 34.5231 20.4235C34.056 21.2372 33.3855 21.87 32.5116 22.322C31.6528 22.774 30.6358 23 29.4606 23H28.4436ZM44.0262 23.2712C42.8058 23.2712 41.6908 22.9925 40.6814 22.435C39.6869 21.8775 38.8884 21.1166 38.2857 20.1523C37.6981 19.173 37.4043 18.0656 37.4043 16.8301C37.4043 15.5795 37.6981 14.4721 38.2857 13.5078C38.8884 12.5435 39.6869 11.7826 40.6814 11.2252C41.6908 10.6677 42.8058 10.389 44.0262 10.389C45.2466 10.389 46.3541 10.6677 47.3485 11.2252C48.3429 11.7826 49.1339 12.5435 49.7215 13.5078C50.3242 14.4721 50.6255 15.5795 50.6255 16.8301C50.6255 18.0656 50.3242 19.173 49.7215 20.1523C49.1339 21.1166 48.3429 21.8775 47.3485 22.435C46.3541 22.9925 45.2466 23.2712 44.0262 23.2712ZM44.0262 20.2201C44.644 20.2201 45.1788 20.077 45.6308 19.7907C46.0979 19.5045 46.4595 19.1052 46.7157 18.5929C46.9869 18.0806 47.1225 17.493 47.1225 16.8301C47.1225 16.1671 46.9869 15.5871 46.7157 15.0898C46.4595 14.5776 46.0979 14.1783 45.6308 13.892C45.1788 13.5907 44.644 13.44 44.0262 13.44C43.4085 13.44 42.8661 13.5907 42.399 13.892C41.9319 14.1783 41.5628 14.5776 41.2916 15.0898C41.0354 15.5871 40.9074 16.1671 40.9074 16.8301C40.9074 17.493 41.0354 18.0806 41.2916 18.5929C41.5628 19.1052 41.9319 19.5045 42.399 19.7907C42.8661 20.077 43.4085 20.2201 44.0262 20.2201ZM59.5384 23.2712C58.6947 23.2712 57.9112 23.1205 57.188 22.8192C56.4798 22.5028 55.9073 22.0432 55.4703 21.4406L55.7867 20.74V23H52.6227V5.89147H56.0127V13.0106L55.4929 12.3326C55.8997 11.7148 56.4497 11.2402 57.1428 10.9088C57.8509 10.5622 58.657 10.389 59.561 10.389C60.7362 10.389 61.7985 10.6752 62.7477 11.2478C63.6969 11.8203 64.4502 12.5963 65.0077 13.5756C65.5652 14.5399 65.8439 15.6247 65.8439 16.8301C65.8439 18.0204 65.5652 19.1052 65.0077 20.0845C64.4653 21.0639 63.7195 21.8398 62.7703 22.4124C61.8211 22.9849 60.7438 23.2712 59.5384 23.2712ZM59.1316 20.2201C59.7644 20.2201 60.3219 20.077 60.804 19.7907C61.2862 19.5045 61.6629 19.1052 61.9341 18.5929C62.2053 18.0806 62.3409 17.493 62.3409 16.8301C62.3409 16.1671 62.2053 15.5871 61.9341 15.0898C61.6629 14.5776 61.2862 14.1783 60.804 13.892C60.3219 13.5907 59.7644 13.44 59.1316 13.44C58.5289 13.44 57.9865 13.5832 57.5044 13.8694C57.0373 14.1557 56.6682 14.555 56.397 15.0672C56.1408 15.5795 56.0127 16.1671 56.0127 16.8301C56.0127 17.493 56.1408 18.0806 56.397 18.5929C56.6682 19.1052 57.0373 19.5045 57.5044 19.7907C57.9865 20.077 58.5289 20.2201 59.1316 20.2201ZM68.078 23V6.16267H75.1972C76.3573 6.16267 77.3517 6.35854 78.1804 6.75028C79.0091 7.14202 79.6419 7.70704 80.0789 8.44532C80.5158 9.16853 80.7343 10.0499 80.7343 11.0896C80.7343 11.8278 80.5309 12.536 80.1241 13.214C79.7173 13.877 79.0468 14.4344 78.1126 14.8864V13.1688C79.0016 13.5153 79.6871 13.9297 80.1693 14.4118C80.6514 14.894 80.9829 15.4213 81.1637 15.9939C81.3445 16.5513 81.4349 17.139 81.4349 17.7567C81.4349 19.4141 80.8849 20.7023 79.7851 21.6214C78.6852 22.5405 77.1559 23 75.1972 23H68.078ZM71.5811 19.9489H75.604C76.3121 19.9489 76.8771 19.7455 77.299 19.3387C77.7209 18.9319 77.9318 18.4046 77.9318 17.7567C77.9318 17.0938 77.7209 16.5589 77.299 16.1521C76.8771 15.7453 76.3121 15.5419 75.604 15.5419H71.5811V19.9489ZM71.5811 12.4908H75.4458C75.9882 12.4908 76.4176 12.3401 76.734 12.0388C77.0655 11.7224 77.2312 11.308 77.2312 10.7958C77.2312 10.2835 77.0655 9.87668 76.734 9.57534C76.4176 9.25893 75.9882 9.10073 75.4458 9.10073H71.5811V12.4908ZM89.5582 23.2712C88.3377 23.2712 87.2228 22.9925 86.2133 22.435C85.2189 21.8775 84.4203 21.1166 83.8176 20.1523C83.23 19.173 82.9362 18.0656 82.9362 16.8301C82.9362 15.5795 83.23 14.4721 83.8176 13.5078C84.4203 12.5435 85.2189 11.7826 86.2133 11.2252C87.2228 10.6677 88.3377 10.389 89.5582 10.389C90.7786 10.389 91.886 10.6677 92.8804 11.2252C93.8748 11.7826 94.6659 12.5435 95.2535 13.5078C95.8561 14.4721 96.1575 15.5795 96.1575 16.8301C96.1575 18.0656 95.8561 19.173 95.2535 20.1523C94.6659 21.1166 93.8748 21.8775 92.8804 22.435C91.886 22.9925 90.7786 23.2712 89.5582 23.2712ZM89.5582 20.2201C90.1759 20.2201 90.7108 20.077 91.1628 19.7907C91.6299 19.5045 91.9915 19.1052 92.2476 18.5929C92.5188 18.0806 92.6544 17.493 92.6544 16.8301C92.6544 16.1671 92.5188 15.5871 92.2476 15.0898C91.9915 14.5776 91.6299 14.1783 91.1628 13.892C90.7108 13.5907 90.1759 13.44 89.5582 13.44C88.9404 13.44 88.398 13.5907 87.9309 13.892C87.4639 14.1783 87.0947 14.5776 86.8235 15.0898C86.5674 15.5871 86.4393 16.1671 86.4393 16.8301C86.4393 17.493 86.5674 18.0806 86.8235 18.5929C87.0947 19.1052 87.4639 19.5045 87.9309 19.7907C88.398 20.077 88.9404 20.2201 89.5582 20.2201ZM96.7414 23L101.058 16.8075L96.7188 10.6602H100.651L103.906 15.4515H102.188L105.443 10.6602H109.375L105.036 16.8075L109.33 23H105.42L102.233 18.2087H103.861L100.674 23H96.7414Z" fill="#00406B"/>
</svg>
