<svg width="102" height="32" viewBox="0 0 102 32" fill="none" xmlns="http://www.w3.org/2000/svg">
<rect width="101.042" height="31.9081" rx="4.5583" fill="#3E8600"/>
<path d="M67.0233 14.8778V16.5859H65.9526V17.706H67.0233V21.512C67.0233 22.8117 67.6112 23.3315 69.0903 23.3315C69.3502 23.3315 69.5977 23.3006 69.8143 23.2634V22.1557C69.6287 22.1742 69.5111 22.1866 69.3069 22.1866C68.6447 22.1866 68.3538 21.8772 68.3538 21.1717V17.706H69.8143V16.5859H68.3538V14.8778H67.0233Z" fill="white"/>
<path d="M73.5822 23.4243C75.5502 23.4243 76.757 22.1061 76.757 19.9216C76.757 17.7493 75.544 16.425 73.5822 16.425C71.6143 16.425 70.4013 17.7493 70.4013 19.9216C70.4013 22.1061 71.6081 23.4243 73.5822 23.4243ZM73.5822 22.2423C72.425 22.2423 71.7752 21.3945 71.7752 19.9216C71.7752 18.461 72.425 17.607 73.5822 17.607C74.7333 17.607 75.3893 18.461 75.3893 19.9216C75.3893 21.3883 74.7333 22.2423 73.5822 22.2423Z" fill="white"/>
<path d="M77.7895 23.2944H79.1201V19.3151C79.1201 18.3682 79.8318 17.7308 80.8405 17.7308C81.0757 17.7308 81.4718 17.7741 81.5832 17.8112V16.4992C81.4408 16.4621 81.1871 16.4435 80.9891 16.4435C80.1103 16.4435 79.3614 16.9263 79.1696 17.5884H79.0706V16.5549H77.7895V23.2944Z" fill="white"/>
<path d="M84.8869 17.5575C85.8709 17.5575 86.5145 18.2444 86.5455 19.3027H83.1417C83.216 18.2506 83.9029 17.5575 84.8869 17.5575ZM86.5393 21.4749C86.2917 22.0009 85.7409 22.2918 84.9364 22.2918C83.872 22.2918 83.185 21.543 83.1417 20.361V20.2867H87.9008V19.8225C87.9008 17.706 86.7683 16.425 84.8931 16.425C82.9932 16.425 81.7864 17.7927 81.7864 19.9463C81.7864 22.1 82.9684 23.4243 84.8993 23.4243C86.4403 23.4243 87.5171 22.6817 87.8203 21.4749H86.5393Z" fill="white"/>
<path d="M58.2977 20.8056C58.4003 22.4605 59.7794 23.5189 61.832 23.5189C64.0257 23.5189 65.3983 22.4092 65.3983 20.6388C65.3983 19.2469 64.6158 18.4772 62.7171 18.0346L61.6973 17.7844C60.4914 17.5022 60.0039 17.1238 60.0039 16.4631C60.0039 15.6292 60.7608 15.084 61.8961 15.084C62.9737 15.084 63.7178 15.6164 63.8525 16.4695H65.2508C65.1674 14.9108 63.7948 13.814 61.9154 13.814C59.8948 13.814 58.5478 14.9108 58.5478 16.5593C58.5478 17.9191 59.3111 18.7274 60.9853 19.1186L62.1783 19.4073C63.4035 19.6959 63.9423 20.1193 63.9423 20.8248C63.9423 21.6459 63.0956 22.2424 61.941 22.2424C60.703 22.2424 59.8435 21.6844 59.7216 20.8056H58.2977Z" fill="white"/>
<path d="M44.5144 16.4435C43.5985 16.4435 42.8064 16.9015 42.3979 17.6689H42.2989V16.5549H41.0179V25.5347H42.3484V22.2732H42.4536C42.8064 22.9849 43.5676 23.4058 44.5268 23.4058C46.2287 23.4058 47.3117 22.0628 47.3117 19.9216C47.3117 17.7803 46.2287 16.4435 44.5144 16.4435ZM44.1369 22.2114C43.023 22.2114 42.3237 21.3326 42.3237 19.9277C42.3237 18.5167 43.023 17.6379 44.1431 17.6379C45.2695 17.6379 45.944 18.4982 45.944 19.9216C45.944 21.3511 45.2695 22.2114 44.1369 22.2114Z" fill="white"/>
<path d="M51.9675 16.4435C51.0516 16.4435 50.2595 16.9015 49.851 17.6689H49.752V16.5549H48.471V25.5347H49.8015V22.2732H49.9067C50.2595 22.9849 51.0207 23.4058 51.9799 23.4058C53.6818 23.4058 54.7648 22.0628 54.7648 19.9216C54.7648 17.7803 53.6818 16.4435 51.9675 16.4435ZM51.59 22.2114C50.4761 22.2114 49.7768 21.3326 49.7768 19.9277C49.7768 18.5167 50.4761 17.6379 51.5962 17.6379C52.7226 17.6379 53.3971 18.4982 53.3971 19.9216C53.3971 21.3511 52.7226 22.2114 51.59 22.2114Z" fill="white"/>
<path d="M38.6306 23.2944H40.1572L36.8153 14.0385H35.2695L31.9276 23.2944H33.4029L34.256 20.8377H37.7839L38.6306 23.2944ZM35.9687 15.719H36.0777L37.4183 19.6318H34.6216L35.9687 15.719Z" fill="white"/>
<path d="M32.8191 7.0571V11.5222H34.4312C35.7618 11.5222 36.5323 10.7022 36.5323 9.27573C36.5323 7.87091 35.7556 7.0571 34.4312 7.0571H32.8191ZM33.5122 7.68834H34.3539C35.2791 7.68834 35.8268 8.27626 35.8268 9.28501C35.8268 10.3092 35.2884 10.891 34.3539 10.891H33.5122V7.68834Z" fill="white"/>
<path d="M38.892 11.5872C39.876 11.5872 40.4794 10.9281 40.4794 9.8358C40.4794 8.74969 39.8729 8.08751 38.892 8.08751C37.908 8.08751 37.3015 8.74969 37.3015 9.8358C37.3015 10.9281 37.9049 11.5872 38.892 11.5872ZM38.892 10.9962C38.3134 10.9962 37.9885 10.5722 37.9885 9.8358C37.9885 9.10554 38.3134 8.67852 38.892 8.67852C39.4676 8.67852 39.7955 9.10554 39.7955 9.8358C39.7955 10.5692 39.4676 10.9962 38.892 10.9962Z" fill="white"/>
<path d="M45.6178 8.15249H44.9525L44.3522 10.7239H44.2996L43.6065 8.15249H42.9691L42.276 10.7239H42.2264L41.6231 8.15249H40.9485L41.8768 11.5222H42.5606L43.2538 9.04056H43.3064L44.0026 11.5222H44.6926L45.6178 8.15249Z" fill="white"/>
<path d="M46.384 11.5222H47.0493V9.55112C47.0493 9.02509 47.3618 8.69709 47.8538 8.69709C48.3458 8.69709 48.5809 8.9663 48.5809 9.5078V11.5222H49.2462V9.34071C49.2462 8.53928 48.8316 8.08751 48.0797 8.08751C47.5722 8.08751 47.238 8.31339 47.074 8.68781H47.0245V8.15249H46.384V11.5222Z" fill="white"/>
<path d="M50.294 11.5222H50.9592V6.8374H50.294V11.5222Z" fill="white"/>
<path d="M53.4613 11.5872C54.4453 11.5872 55.0487 10.9281 55.0487 9.8358C55.0487 8.74969 54.4422 8.08751 53.4613 8.08751C52.4773 8.08751 51.8708 8.74969 51.8708 9.8358C51.8708 10.9281 52.4742 11.5872 53.4613 11.5872ZM53.4613 10.9962C52.8827 10.9962 52.5578 10.5722 52.5578 9.8358C52.5578 9.10554 52.8827 8.67852 53.4613 8.67852C54.0369 8.67852 54.3649 9.10554 54.3649 9.8358C54.3649 10.5692 54.0369 10.9962 53.4613 10.9962Z" fill="white"/>
<path d="M57.0309 11.0178C56.6689 11.0178 56.4059 10.8415 56.4059 10.5382C56.4059 10.2412 56.6163 10.0833 57.0804 10.0524L57.9035 9.9998V10.2814C57.9035 10.6991 57.5322 11.0178 57.0309 11.0178ZM56.8607 11.5779C57.3032 11.5779 57.6714 11.3861 57.8726 11.0488H57.9252V11.5222H58.5657V9.22003C58.5657 8.50834 58.0892 8.08751 57.2444 8.08751C56.4801 8.08751 55.9355 8.45883 55.8675 9.03747H56.5111C56.5853 8.7992 56.8422 8.66305 57.2135 8.66305C57.6684 8.66305 57.9035 8.86418 57.9035 9.22003V9.5109L56.9907 9.5635C56.1893 9.61301 55.7375 9.96267 55.7375 10.5692C55.7375 11.1849 56.2109 11.5779 56.8607 11.5779Z" fill="white"/>
<path d="M60.8233 11.5779C61.2875 11.5779 61.6804 11.3582 61.8816 10.99H61.9342V11.5222H62.5716V6.8374H61.9063V8.68781H61.8568C61.6743 8.31649 61.2844 8.09679 60.8233 8.09679C59.9724 8.09679 59.4247 8.77135 59.4247 9.8358C59.4247 10.9033 59.9662 11.5779 60.8233 11.5779ZM61.0121 8.694C61.5691 8.694 61.9187 9.13648 61.9187 9.83889C61.9187 10.5444 61.5721 10.9807 61.0121 10.9807C60.4489 10.9807 60.1116 10.5506 60.1116 9.8358C60.1116 9.1272 60.452 8.694 61.0121 8.694Z" fill="white"/>
<path d="M66.8857 11.5872C67.8697 11.5872 68.4731 10.9281 68.4731 9.8358C68.4731 8.74969 67.8666 8.08751 66.8857 8.08751C65.9017 8.08751 65.2952 8.74969 65.2952 9.8358C65.2952 10.9281 65.8986 11.5872 66.8857 11.5872ZM66.8857 10.9962C66.3071 10.9962 65.9822 10.5722 65.9822 9.8358C65.9822 9.10554 66.3071 8.67852 66.8857 8.67852C67.4613 8.67852 67.7893 9.10554 67.7893 9.8358C67.7893 10.5692 67.4613 10.9962 66.8857 10.9962Z" fill="white"/>
<path d="M69.3538 11.5222H70.019V9.55112C70.019 9.02509 70.3316 8.69709 70.8236 8.69709C71.3156 8.69709 71.5507 8.9663 71.5507 9.5078V11.5222H72.216V9.34071C72.216 8.53928 71.8014 8.08751 71.0494 8.08751C70.542 8.08751 70.2078 8.31339 70.0438 8.68781H69.9943V8.15249H69.3538V11.5222Z" fill="white"/>
<path d="M75.28 7.31393V8.16796H74.7447V8.72803H75.28V10.631C75.28 11.2808 75.574 11.5408 76.3135 11.5408C76.4435 11.5408 76.5672 11.5253 76.6755 11.5067V10.9529C76.5827 10.9621 76.5239 10.9683 76.4218 10.9683C76.0907 10.9683 75.9453 10.8136 75.9453 10.4609V8.72803H76.6755V8.16796H75.9453V7.31393H75.28Z" fill="white"/>
<path d="M77.5686 11.5222H78.2338V9.55422C78.2338 9.04365 78.5371 8.70018 79.0817 8.70018C79.552 8.70018 79.8027 8.97248 79.8027 9.5109V11.5222H80.4679V9.3469C80.4679 8.54547 80.0254 8.0906 79.3076 8.0906C78.8001 8.0906 78.4442 8.31649 78.2803 8.694H78.2276V6.8374H77.5686V11.5222Z" fill="white"/>
<path d="M82.8679 8.65377C83.3599 8.65377 83.6817 8.99724 83.6972 9.52637H81.9953C82.0324 9.00033 82.3759 8.65377 82.8679 8.65377ZM83.6941 10.6125C83.5703 10.8755 83.2949 11.0209 82.8926 11.0209C82.3604 11.0209 82.0169 10.6465 81.9953 10.0555V10.0184H84.3748V9.78629C84.3748 8.72803 83.8086 8.08751 82.871 8.08751C81.921 8.08751 81.3176 8.77135 81.3176 9.84818C81.3176 10.925 81.9086 11.5872 82.8741 11.5872C83.6446 11.5872 84.183 11.2159 84.3346 10.6125H83.6941Z" fill="white"/>
<path d="M24.7072 15.6982C24.7233 14.4449 25.3964 13.259 26.4641 12.6026C25.7905 11.6406 24.6623 11.0307 23.4885 10.994C22.2365 10.8626 21.0228 11.7431 20.3849 11.7431C19.7345 11.7431 18.7523 11.007 17.6945 11.0288C16.3158 11.0733 15.0305 11.8572 14.3598 13.0625C12.9179 15.5589 13.9934 19.2278 15.3746 21.2457C16.0656 22.2339 16.8733 23.3376 17.9301 23.2985C18.9642 23.2556 19.3504 22.639 20.5987 22.639C21.8354 22.639 22.1977 23.2985 23.276 23.2736C24.3856 23.2556 25.0848 22.2811 25.7516 21.2836C26.2481 20.5795 26.6301 19.8014 26.8836 18.978C25.5796 18.4264 24.7087 17.1141 24.7072 15.6982Z" fill="white"/>
<path d="M22.6706 9.66688C23.2756 8.94056 23.5737 8.007 23.5015 7.06445C22.5772 7.16154 21.7233 7.60332 21.1101 8.30177C20.5105 8.9842 20.1984 9.90134 20.2574 10.8079C21.1821 10.8174 22.0911 10.3876 22.6706 9.66688Z" fill="white"/>
</svg>
